<svg style="position: absolute; width: 0; height: 0; overflow: hidden;" version="1.1" xmlns="http://www.w3.org/2000/svg" xmlns:xlink="http://www.w3.org/1999/xlink">
<defs>
<symbol id="icon-download3" viewBox="0 0 32 32">
<title>download3</title>
<path d="M23 14l-8 8-8-8h5v-12h6v12zM15 22h-15v8h30v-8h-15zM28 26h-4v-2h4v2z"></path>
</symbol>
<symbol id="icon-tongue" viewBox="0 0 32 32">
<title>tongue</title>
<path d="M16 32c8.837 0 16-7.163 16-16s-7.163-16-16-16-16 7.163-16 16 7.163 16 16 16zM16 3c7.18 0 13 5.82 13 13s-5.82 13-13 13-13-5.82-13-13 5.82-13 13-13zM8 10c0-1.105 0.895-2 2-2s2 0.895 2 2c0 1.105-0.895 2-2 2s-2-0.895-2-2zM20 10c0-1.105 0.895-2 2-2s2 0.895 2 2c0 1.105-0.895 2-2 2s-2-0.895-2-2zM24 18v2h-2v3c0 1.657-1.343 3-3 3s-3-1.343-3-3v-3h-8v-2h16z"></path>
</symbol>
<symbol id="icon-wink2" viewBox="0 0 32 32">
<title>wink2</title>
<path d="M16 0c-8.837 0-16 7.163-16 16s7.163 16 16 16c8.837 0 16-7.163 16-16s-7.163-16-16-16zM22 8c1.105 0 2 1.343 2 3s-0.895 3-2 3-2-1.343-2-3 0.895-3 2-3zM11 9.752c1.864 0 3.188 0.698 3.188 1.79 0 0.231 0.119 1.344-0.005 1.55-0.463-0.768-1.713-1.318-3.182-1.318s-2.719 0.55-3.182 1.318c-0.124-0.206-0.005-1.319-0.005-1.55 0-1.092 1.324-1.79 3.187-1.79zM15.636 26c-3.726 0-6.996-2.009-8.84-5.030 2.2 1.721 6.079 2.057 10.165 1.249 4.383-0.866 7.785-2.861 9.014-5.519-0.677 5.249-5.047 9.299-10.339 9.299z"></path>
</symbol>
<symbol id="icon-evil" viewBox="0 0 32 32">
<title>evil</title>
<path d="M20 14c-1.105 0-2-0.895-2-2 0-0.037 0.001-0.073 0.003-0.109 0.064-1.483 1.413-2.467 2.55-3.036 1.086-0.543 2.159-0.814 2.205-0.826 0.536-0.134 1.079 0.192 1.213 0.728s-0.192 1.079-0.728 1.213c-0.551 0.139-1.204 0.379-1.779 0.667 0.333 0.357 0.537 0.836 0.537 1.363 0 1.105-0.895 2-2 2zM8.758 9.97c-0.536-0.134-0.862-0.677-0.728-1.213s0.677-0.862 1.213-0.728c0.045 0.011 1.119 0.283 2.205 0.826 1.137 0.568 2.486 1.553 2.55 3.036 0.002 0.036 0.003 0.072 0.003 0.109 0 1.105-0.895 2-2 2s-2-0.895-2-2c0-0.527 0.204-1.005 0.537-1.363-0.575-0.288-1.229-0.528-1.779-0.667zM16 23c2.549 0 4.779-1.362 6.003-3.398l2.573 1.544c-1.749 2.908-4.935 4.855-8.576 4.855s-6.827-1.946-8.576-4.855l2.573-1.544c1.224 2.036 3.454 3.398 6.003 3.398zM32 2c0-1.422-0.298-2.775-0.833-4-1.049 2.401-3.014 4.31-5.453 5.287-2.694-2.061-6.061-3.287-9.714-3.287s-7.021 1.226-9.714 3.287c-2.439-0.976-4.404-2.886-5.453-5.287-0.535 1.225-0.833 2.578-0.833 4 0 2.299 0.777 4.417 2.081 6.106-1.324 2.329-2.081 5.023-2.081 7.894 0 8.837 7.163 16 16 16s16-7.163 16-16c0-2.871-0.757-5.565-2.081-7.894 1.304-1.689 2.081-3.806 2.081-6.106zM16 29c-7.18 0-13-5.82-13-13s5.82-13 13-13 13 5.82 13 13-5.82 13-13 13z"></path>
</symbol>
<symbol id="icon-baffled" viewBox="0 0 32 32">
<title>baffled</title>
<path d="M16 32c8.837 0 16-7.163 16-16s-7.163-16-16-16-16 7.163-16 16 7.163 16 16 16zM16 3c7.18 0 13 5.82 13 13s-5.82 13-13 13-13-5.82-13-13 5.82-13 13-13z"></path>
<path d="M12 13c0 0.552-0.448 1-1 1s-1-0.448-1-1c0-0.552 0.448-1 1-1s1 0.448 1 1z"></path>
<path d="M11 10c1.657 0 3 1.343 3 3s-1.343 3-3 3-3-1.343-3-3 1.343-3 3-3zM11 8c-2.757 0-5 2.243-5 5s2.243 5 5 5 5-2.243 5-5-2.243-5-5-5v0z"></path>
<path d="M22 13c0 0.552-0.448 1-1 1s-1-0.448-1-1c0-0.552 0.448-1 1-1s1 0.448 1 1z"></path>
<path d="M21 10c1.657 0 3 1.343 3 3s-1.343 3-3 3-3-1.343-3-3 1.343-3 3-3zM21 8c-2.757 0-5 2.243-5 5s2.243 5 5 5 5-2.243 5-5-2.243-5-5-5v0z"></path>
<path d="M12 22h8v2h-8v-2z"></path>
</symbol>
<symbol id="icon-warning" viewBox="0 0 32 32">
<title>warning</title>
<path d="M16 2.899l13.409 26.726h-26.819l13.409-26.726zM16 0c-0.69 0-1.379 0.465-1.903 1.395l-13.659 27.222c-1.046 1.86-0.156 3.383 1.978 3.383h27.166c2.134 0 3.025-1.522 1.978-3.383h0l-13.659-27.222c-0.523-0.93-1.213-1.395-1.903-1.395v0z"></path>
<path d="M18 26c0 1.105-0.895 2-2 2s-2-0.895-2-2c0-1.105 0.895-2 2-2s2 0.895 2 2z"></path>
<path d="M16 22c-1.105 0-2-0.895-2-2v-6c0-1.105 0.895-2 2-2s2 0.895 2 2v6c0 1.105-0.895 2-2 2z"></path>
</symbol>
<symbol id="icon-blocked" viewBox="0 0 32 32">
<title>blocked</title>
<path d="M27.314 4.686c-3.022-3.022-7.040-4.686-11.314-4.686s-8.292 1.664-11.314 4.686c-3.022 3.022-4.686 7.040-4.686 11.314s1.664 8.292 4.686 11.314c3.022 3.022 7.040 4.686 11.314 4.686s8.292-1.664 11.314-4.686c3.022-3.022 4.686-7.040 4.686-11.314s-1.664-8.292-4.686-11.314zM28 16c0 2.588-0.824 4.987-2.222 6.949l-16.727-16.727c1.962-1.399 4.361-2.222 6.949-2.222 6.617 0 12 5.383 12 12zM4 16c0-2.588 0.824-4.987 2.222-6.949l16.727 16.727c-1.962 1.399-4.361 2.222-6.949 2.222-6.617 0-12-5.383-12-12z"></path>
</symbol>
</defs>
</svg>
